<svg xmlns="http://www.w3.org/2000/svg" xmlns:xlink="http://www.w3.org/1999/xlink" viewBox="0 0 144.65 167.11"><defs><style>.cls-1{fill:none;}.cls-2{isolation:isolate;}.cls-3{clip-path:url(#clip-path);}.cls-4{fill:#437c82;}.cls-5{fill:#447f84;}.cls-6{fill:#468187;}.cls-7{fill:#48848a;}.cls-8{fill:#49878d;}.cls-9{fill:#4b898f;}.cls-10{fill:#4c8c92;}.cls-11{fill:#4e8e95;}.cls-12{clip-path:url(#clip-path-2);}.cls-13{clip-path:url(#clip-path-3);}.cls-14{clip-path:url(#clip-path-4);}.cls-15{fill:#4f9197;}.cls-16{clip-path:url(#clip-path-5);}.cls-17{clip-path:url(#clip-path-6);}.cls-18{fill:#4f9298;}.cls-19{fill:#417a7f;}.cls-20{fill:#4f9097;}.cls-21{fill:#50939a;}.cls-22{fill:#53989f;}.cls-23{fill:#4c8c93;}.cls-24{fill:#4b8a90;}.cls-25{clip-path:url(#clip-path-7);}.cls-26{clip-path:url(#clip-path-8);}.cls-27{fill:#4d8d93;}.cls-28{clip-path:url(#clip-path-9);}.cls-29{fill:#559ba2;}.cls-30{fill:#65bbc4;}</style><clipPath id="clip-path"><path class="cls-1" d="M26.17,24.67l-9.58,1.66a2.47,2.47,0,0,1-.92-1.25A24.14,24.14,0,0,1,14,20.25l9.57-1.66a25.73,25.73,0,0,0,1.65,4.83A2.48,2.48,0,0,0,26.17,24.67Z"/></clipPath><clipPath id="clip-path-2"><path class="cls-1" d="M26.42,24.67l-9.57,1.66a.57.57,0,0,1-.26,0l9.58-1.66A.53.53,0,0,0,26.42,24.67Z"/></clipPath><clipPath id="clip-path-3"><path class="cls-1" d="M29.94,1.68,39.52,0A1.52,1.52,0,0,1,40,0L30.42,1.67A1.93,1.93,0,0,0,29.94,1.68Z"/></clipPath><clipPath id="clip-path-4"><path class="cls-1" d="M50.16,23.27l-9.57,1.66a8.22,8.22,0,0,0-.47-3.64C39.45,19.92,31.87,2,30.42,1.67L40,0c1.45.34,9,18.25,9.69,19.62A8.22,8.22,0,0,1,50.16,23.27Z"/></clipPath><clipPath id="clip-path-5"><path class="cls-1" d="M58.67,36.59,49.1,38.25c-.53-.1-.86-.11-1.14-.18a2,2,0,0,1-1.09-.77c-.85-.93-6-11.8-6.28-12.37l9.57-1.66c.27.58,5.43,11.44,6.28,12.37a2.07,2.07,0,0,0,1.1.78C57.82,36.48,58.15,36.5,58.67,36.59Z"/></clipPath><clipPath id="clip-path-6"><path class="cls-1" d="M83.61,89.81,74,91.47a.77.77,0,0,1-.26,0,1,1,0,0,1-.61-.57c-.6-1.12-4.2-11.52-5-11.69-.5-.12-.89,0-1.26-.14a1.18,1.18,0,0,1-.55-.29c-.58-.5-16.08-40.23-17.31-40.52l9.57-1.66c1.23.29,16.74,40,17.31,40.53a1.37,1.37,0,0,0,.56.29c.37.08.75,0,1.25.13.75.17,4.35,10.57,4.95,11.69.2.37.41.53.61.57A.77.77,0,0,0,83.61,89.81Z"/></clipPath><clipPath id="clip-path-7"><path class="cls-1" d="M107,108.55l9.57-1.66a2.6,2.6,0,0,1,1.06,0l-9.58,1.66A2.55,2.55,0,0,0,107,108.55Z"/></clipPath><clipPath id="clip-path-8"><path class="cls-1" d="M122,108.81l-9.58,1.66a27.59,27.59,0,0,0-4.35-1.87l9.58-1.66A28.54,28.54,0,0,1,122,108.81Z"/></clipPath><clipPath id="clip-path-9"><path class="cls-1" d="M118.34,115.89l9.58-1.66a7.64,7.64,0,0,1,2.92.12c3.42.8,8.16,10.47,8.41,11L129.67,127c-.25-.51-5-10.18-8.41-11A7.63,7.63,0,0,0,118.34,115.89Z"/></clipPath></defs><title>Element 1</title><g id="Ebene_2" data-name="Ebene 2"><g id="Ebene_1-2" data-name="Ebene 1"><g class="cls-2"><g class="cls-2"><g class="cls-3"><g class="cls-2"><path class="cls-4" d="M26.17,24.67l-9.58,1.66a1.73,1.73,0,0,1-.29-.23l9.57-1.66a1.4,1.4,0,0,0,.3.23"/><path class="cls-5" d="M25.87,24.44,16.3,26.1a.75.75,0,0,1-.15-.16l9.57-1.66.15.16"/><path class="cls-6" d="M25.72,24.28l-9.57,1.66a1.27,1.27,0,0,1-.13-.19l9.57-1.66.13.19"/><path class="cls-7" d="M25.59,24.09,16,25.75l-.19-.33,9.58-1.66a3.27,3.27,0,0,0,.18.33"/><path class="cls-8" d="M25.41,23.76l-9.58,1.66-.16-.34c-.15-.3-.28-.6-.41-.9l9.58-1.66c.12.3.26.6.4.9l.17.34"/><path class="cls-9" d="M24.84,22.52l-9.58,1.66c-.23-.55-.42-1.09-.59-1.59l9.58-1.66c.16.5.36,1,.59,1.59"/><path class="cls-10" d="M24.25,20.93l-9.58,1.66c-.32-1-.52-1.8-.6-2.15l9.57-1.66c.08.35.28,1.16.61,2.15"/><path class="cls-11" d="M23.64,18.78l-9.57,1.66,0-.11,9.57-1.65,0,.1"/><path class="cls-10" d="M23.61,18.68,14,20.33a.64.64,0,0,0,0-.07L23.6,18.6s0,0,0,.08"/><polyline class="cls-9" points="23.6 18.6 14.02 20.26 14.02 20.26 23.6 18.6 23.6 18.6"/><polyline class="cls-8" points="23.6 18.6 14.02 20.26 14.02 20.25 23.59 18.59 23.6 18.6"/><polyline class="cls-7" points="23.59 18.59 14.02 20.25 14.02 20.25 23.59 18.59 23.59 18.59"/><polyline class="cls-6" points="23.59 18.59 14.02 20.25 14.02 20.25 23.59 18.59 23.59 18.59"/><polyline class="cls-5" points="23.59 18.59 14.02 20.25 14.02 20.25 23.59 18.59 23.59 18.59"/><polyline class="cls-4" points="23.59 18.59 14.02 20.25 14.02 20.25 23.59 18.59 23.59 18.59"/></g></g></g><g class="cls-2"><g class="cls-12"><g class="cls-2"><path class="cls-4" d="M26.42,24.67l-9.57,1.66a.57.57,0,0,1-.26,0l9.58-1.66a.53.53,0,0,0,.25,0"/></g></g></g><g class="cls-2"><g class="cls-13"><g class="cls-2"><path class="cls-4" d="M40,0,30.42,1.67a1.93,1.93,0,0,0-.48,0L39.52,0A1.52,1.52,0,0,1,40,0"/></g></g></g><g class="cls-2"><g class="cls-14"><g class="cls-2"><path class="cls-15" d="M50.16,23.27l-9.57,1.66a10.85,10.85,0,0,0,0-2l9.57-1.66a10,10,0,0,1,0,2"/><path class="cls-11" d="M50.12,21.24,40.55,22.9a6.37,6.37,0,0,0-.13-.74L50,20.5a6.37,6.37,0,0,1,.13.74"/><path class="cls-10" d="M50,20.5l-9.57,1.66c0-.13-.07-.27-.11-.4l9.57-1.66a3,3,0,0,1,.11.4"/><path class="cls-9" d="M49.88,20.1l-9.57,1.66c0-.1-.07-.19-.11-.29l9.58-1.66c0,.1.07.19.1.29"/><path class="cls-8" d="M49.78,19.81,40.2,21.47l-.08-.18c-.48-1-4.48-10.4-7.26-15.82l9.58-1.66c2.77,5.43,6.78,14.84,7.25,15.82l.09.18"/><path class="cls-7" d="M42.44,3.81,32.86,5.47c-.54-1.06-1-2-1.45-2.63L41,1.18c.42.66.91,1.57,1.46,2.63"/><path class="cls-6" d="M41,1.18,31.41,2.84a7.5,7.5,0,0,0-.48-.7L40.51.48a7.63,7.63,0,0,1,.47.7"/><path class="cls-5" d="M40.51.48,30.93,2.14a2.29,2.29,0,0,0-.27-.31L40.24.17a3.15,3.15,0,0,1,.27.31"/><path class="cls-4" d="M40.24.17,30.66,1.83a.5.5,0,0,0-.24-.16L40,0a.75.75,0,0,1,.24.16"/></g></g></g><g class="cls-2"><g class="cls-16"><g class="cls-2"><path class="cls-4" d="M58.67,36.59,49.1,38.25c-.53-.1-.86-.11-1.14-.18a1.62,1.62,0,0,1-.82-.48l9.58-1.66a1.68,1.68,0,0,0,.82.49c.28.06.61.08,1.13.17"/><path class="cls-5" d="M56.72,35.93l-9.58,1.66-.27-.29-.07-.08,9.57-1.66.07.08a4,4,0,0,0,.28.29"/><path class="cls-6" d="M56.37,35.56,46.8,37.22c-.06-.08-.13-.19-.21-.32l9.57-1.66c.08.13.15.24.21.32"/><path class="cls-7" d="M56.16,35.24,46.59,36.9c-.35-.55-.88-1.56-1.5-2.75l9.58-1.66c.61,1.19,1.15,2.2,1.49,2.75"/><path class="cls-8" d="M54.67,32.49l-9.58,1.66c-1.81-3.55-4.32-8.82-4.5-9.22l9.57-1.66c.19.4,2.69,5.67,4.51,9.22"/></g></g></g><g class="cls-2"><g class="cls-17"><g class="cls-2"><path class="cls-4" d="M83.61,89.81,74,91.47a.77.77,0,0,1-.26,0,.65.65,0,0,1-.34-.19L83,89.61a.69.69,0,0,0,.34.19.77.77,0,0,0,.26,0"/><path class="cls-5" d="M83,89.61l-9.57,1.66-.11-.13,9.57-1.66.11.13"/><path class="cls-6" d="M82.9,89.48l-9.57,1.66L73.24,91l9.57-1.66.09.13"/><path class="cls-7" d="M82.81,89.35,73.24,91a.75.75,0,0,1-.07-.12l0,0,9.58-1.66,0,0,.07.12"/><path class="cls-8" d="M82.72,89.18l-9.58,1.66c0-.1-.12-.26-.2-.46l9.57-1.66.21.46"/><path class="cls-9" d="M82.51,88.72l-9.57,1.66c-.63-1.53-2.12-5.63-3.28-8.42l9.57-1.66c1.16,2.79,2.65,6.9,3.28,8.42"/><path class="cls-8" d="M79.23,80.3,69.66,82c-.33-.78-.63-1.46-.88-1.95l9.58-1.66c.25.49.55,1.17.87,2"/><path class="cls-7" d="M78.36,78.35,68.78,80a5,5,0,0,0-.26-.48l9.57-1.66q.12.19.27.48"/><path class="cls-6" d="M78.09,77.87l-9.57,1.66-.12-.17L78,77.7l.11.17"/><path class="cls-5" d="M78,77.7,68.4,79.36a.55.55,0,0,0-.1-.11l9.58-1.66.1.11"/><path class="cls-4" d="M77.88,77.59,68.3,79.25a.15.15,0,0,0-.08,0c-.5-.12-.89,0-1.26-.14a1.18,1.18,0,0,1-.55-.29h0L76,77.11h0a1.37,1.37,0,0,0,.56.29c.37.08.75,0,1.25.13a.14.14,0,0,1,.09,0"/><path class="cls-5" d="M76,77.11,66.4,78.77l0-.06,9.58-1.66a.16.16,0,0,0,0,.06"/><path class="cls-6" d="M75.94,77.05l-9.58,1.66,0-.09L75.89,77a.36.36,0,0,0,0,.09"/><path class="cls-7" d="M75.89,77l-9.58,1.66s0-.09-.07-.14l9.58-1.66a.91.91,0,0,0,.07.14"/><path class="cls-8" d="M75.82,76.82l-9.58,1.66c-.21-.44-.6-1.36-1.14-2.64l9.58-1.66c.53,1.28.93,2.2,1.14,2.64"/><path class="cls-9" d="M74.68,74.18,65.1,75.84c-2.18-5.24-6.68-16.48-10.36-25.31l9.58-1.66C68,57.7,72.49,68.94,74.68,74.18"/><path class="cls-8" d="M64.32,48.87l-9.58,1.66c-2.05-4.92-3.85-9.1-4.86-11.07l9.57-1.66c1,2,2.81,6.15,4.87,11.07"/><path class="cls-7" d="M59.45,37.8l-9.57,1.66q-.27-.51-.45-.81L59,37a8.56,8.56,0,0,1,.45.81"/><path class="cls-6" d="M59,37l-9.57,1.66-.15-.23,9.57-1.66A1.53,1.53,0,0,1,59,37"/><path class="cls-5" d="M58.85,36.76l-9.57,1.66-.1-.12,9.57-1.66.1.12"/><path class="cls-4" d="M58.75,36.64,49.18,38.3a.25.25,0,0,0-.08,0l9.57-1.66a.25.25,0,0,1,.08,0"/></g></g></g><polygon class="cls-18" points="89.83 91.31 80.25 92.97 78.54 89.16 88.12 87.5 89.83 91.31"/><polygon class="cls-19" points="95.79 91.85 86.21 93.51 80.25 92.97 89.83 91.31 95.79 91.85"/><polygon class="cls-20" points="97.77 95.91 88.19 97.56 86.21 93.51 95.79 91.85 97.77 95.91"/><polygon class="cls-19" points="101.1 95.96 91.53 97.61 88.19 97.56 97.77 95.91 101.1 95.96"/><polygon class="cls-21" points="102.38 99.11 92.81 100.77 91.53 97.61 101.1 95.96 102.38 99.11"/><polygon class="cls-19" points="106.8 99.42 97.22 101.08 92.81 100.77 102.38 99.11 106.8 99.42"/><polygon class="cls-22" points="107.22 101.28 97.65 102.94 97.22 101.08 106.8 99.42 107.22 101.28"/><polygon class="cls-19" points="108.62 101.61 99.04 103.27 97.65 102.94 107.22 101.28 108.62 101.61"/><polygon class="cls-23" points="110.45 104.53 100.88 106.19 99.04 103.27 108.62 101.61 110.45 104.53"/><polygon class="cls-19" points="112.36 104.61 102.79 106.27 100.88 106.19 110.45 104.53 112.36 104.61"/><polygon class="cls-24" points="114.93 108.19 105.36 109.85 102.79 106.27 112.36 104.61 114.93 108.19"/><g class="cls-2"><g class="cls-25"><g class="cls-2"><path class="cls-4" d="M117.63,106.94l-9.58,1.66a2.55,2.55,0,0,0-1,0l9.57-1.66a2.6,2.6,0,0,1,1.06,0"/></g></g></g><g class="cls-2"><g class="cls-26"><g class="cls-2"><path class="cls-4" d="M122,108.81l-9.58,1.66a27.59,27.59,0,0,0-4.35-1.87l9.58-1.66a28.54,28.54,0,0,1,4.35,1.87"/></g></g></g><polygon class="cls-27" points="125.81 115.19 116.24 116.84 112.4 110.47 121.97 108.81 125.81 115.19"/><g class="cls-2"><g class="cls-28"><g class="cls-2"><path class="cls-8" d="M139.25,125.33,129.67,127l-.36-.72,9.58-1.66c.2.39.32.65.36.72"/><path class="cls-7" d="M138.89,124.61l-9.58,1.66c-.47-.93-1.37-2.61-2.45-4.34l9.57-1.66c1.09,1.73,2,3.41,2.46,4.34"/><path class="cls-6" d="M136.43,120.27l-9.57,1.66a34.22,34.22,0,0,0-2-2.85l9.58-1.66c.69.89,1.35,1.88,2,2.85"/><path class="cls-5" d="M134.47,117.42l-9.58,1.66a16.2,16.2,0,0,0-1.5-1.71l9.57-1.66a16.25,16.25,0,0,1,1.51,1.71"/><path class="cls-4" d="M133,115.71l-9.57,1.66a5.06,5.06,0,0,0-2.13-1.36,7.63,7.63,0,0,0-2.92-.12l9.58-1.66a7.64,7.64,0,0,1,2.92.12,5,5,0,0,1,2.12,1.36"/></g></g></g><polygon class="cls-29" points="144.65 165.45 135.08 167.11 134.04 128.01 143.62 126.35 144.65 165.45"/><path class="cls-30" d="M30.42,1.67c1.45.34,9,18.25,9.7,19.62a8.22,8.22,0,0,1,.47,3.64c.27.57,5.43,11.44,6.28,12.37a2,2,0,0,0,1.09.77c.28.07.61.08,1.14.18,1.23.29,16.73,40,17.31,40.52a1.18,1.18,0,0,0,.55.29c.37.09.76,0,1.26.14.75.17,4.35,10.57,5,11.69a1,1,0,0,0,.61.57.86.86,0,0,0,.74-.26l4-2L80.25,93l6,.54,2,4,3.34.06,1.27,3.15,4.42.31.43,1.86,1.39.33,1.84,2.92,1.91.08,2.56,3.58a2.28,2.28,0,0,1,2.7-1.25,27.59,27.59,0,0,1,4.35,1.87l3.84,6.37c.08-.08,1.56-1.58,5-.83s8.16,10.47,8.41,11l4.37,1,1,39.1-133-34L0,54.53l.72-3.78L14,20.25a24.14,24.14,0,0,0,1.65,4.83,2.47,2.47,0,0,0,.92,1.25c1,.24,2.27-2.27,2.78-3.32C24.46,12.47,26.74,1.29,30.42,1.67Z"/><polygon class="cls-19" points="143.62 126.35 134.04 128.01 129.67 126.99 139.25 125.33 143.62 126.35"/></g></g></g></svg>